<svg xmlns="http://www.w3.org/2000/svg" viewBox="-68 -68 1736 136" width="100%" height="100%"><g><g><g transform="translate(150, 0) rotate(0)"><path d="M -50 -32 L 50 -32 A 32 32 0 0 1 50 32 C 33.333 32, 16.667 24, 0 24 C -16.667 24, -33.333 32, -50 32 A 32 32 0 0 1 -50 -32 Z" fill="#b4bac2" stroke="#6b7280" stroke-width="3" stroke-linejoin="round"/><circle cx="-50" cy="0" r="30" fill="#e5e7eb" stroke="#6b7280" stroke-width="3"/><circle cx="50" cy="0" r="30" fill="#e5e7eb" stroke="#6b7280" stroke-width="3"/><circle cx="-50" cy="0" r="12" fill="#374151"/><circle cx="50" cy="0" r="12" fill="#374151"/></g><g transform="translate(350, 0) rotate(0)"><path d="M -50 -32 L 50 -32 A 32 32 0 0 1 50 32 C 33.333 32, 16.667 24, 0 24 C -16.667 24, -33.333 32, -50 32 A 32 32 0 0 1 -50 -32 Z" fill="#b4bac2" stroke="#6b7280" stroke-width="3" stroke-linejoin="round"/><circle cx="-50" cy="0" r="30" fill="#e5e7eb" stroke="#6b7280" stroke-width="3"/><circle cx="50" cy="0" r="30" fill="#e5e7eb" stroke="#6b7280" stroke-width="3"/><circle cx="-50" cy="0" r="12" fill="#374151"/><circle cx="50" cy="0" r="12" fill="#374151"/></g><g transform="translate(550, 0) rotate(0)"><path d="M -50 -32 L 50 -32 A 32 32 0 0 1 50 32 C 33.333 32, 16.667 24, 0 24 C -16.667 24, -33.333 32, -50 32 A 32 32 0 0 1 -50 -32 Z" fill="#b4bac2" stroke="#6b7280" stroke-width="3" stroke-linejoin="round"/><circle cx="-50" cy="0" r="30" fill="#e5e7eb" stroke="#6b7280" stroke-width="3"/><circle cx="50" cy="0" r="30" fill="#e5e7eb" stroke="#6b7280" stroke-width="3"/><circle cx="-50" cy="0" r="12" fill="#374151"/><circle cx="50" cy="0" r="12" fill="#374151"/></g><g transform="translate(750, 0) rotate(0)"><path d="M -50 -32 L 50 -32 A 32 32 0 0 1 50 32 C 33.333 32, 16.667 24, 0 24 C -16.667 24, -33.333 32, -50 32 A 32 32 0 0 1 -50 -32 Z" fill="#b4bac2" stroke="#6b7280" stroke-width="3" stroke-linejoin="round"/><circle cx="-50" cy="0" r="30" fill="#e5e7eb" stroke="#6b7280" stroke-width="3"/><circle cx="50" cy="0" r="30" fill="#e5e7eb" stroke="#6b7280" stroke-width="3"/><circle cx="-50" cy="0" r="12" fill="#374151"/><circle cx="50" cy="0" r="12" fill="#374151"/></g><g transform="translate(950, 0) rotate(0)"><path d="M -50 -32 L 50 -32 A 32 32 0 0 1 50 32 C 33.333 32, 16.667 24, 0 24 C -16.667 24, -33.333 32, -50 32 A 32 32 0 0 1 -50 -32 Z" fill="#b4bac2" stroke="#6b7280" stroke-width="3" stroke-linejoin="round"/><circle cx="-50" cy="0" r="30" fill="#e5e7eb" stroke="#6b7280" stroke-width="3"/><circle cx="50" cy="0" r="30" fill="#e5e7eb" stroke="#6b7280" stroke-width="3"/><circle cx="-50" cy="0" r="12" fill="#374151"/><circle cx="50" cy="0" r="12" fill="#374151"/></g><g transform="translate(1150, 0) rotate(0)"><path d="M -50 -32 L 50 -32 A 32 32 0 0 1 50 32 C 33.333 32, 16.667 24, 0 24 C -16.667 24, -33.333 32, -50 32 A 32 32 0 0 1 -50 -32 Z" fill="#b4bac2" stroke="#6b7280" stroke-width="3" stroke-linejoin="round"/><circle cx="-50" cy="0" r="30" fill="#e5e7eb" stroke="#6b7280" stroke-width="3"/><circle cx="50" cy="0" r="30" fill="#e5e7eb" stroke="#6b7280" stroke-width="3"/><circle cx="-50" cy="0" r="12" fill="#374151"/><circle cx="50" cy="0" r="12" fill="#374151"/></g><g transform="translate(1350, 0) rotate(0)"><path d="M -50 -32 L 50 -32 A 32 32 0 0 1 50 32 C 33.333 32, 16.667 24, 0 24 C -16.667 24, -33.333 32, -50 32 A 32 32 0 0 1 -50 -32 Z" fill="#b4bac2" stroke="#6b7280" stroke-width="3" stroke-linejoin="round"/><circle cx="-50" cy="0" r="30" fill="#e5e7eb" stroke="#6b7280" stroke-width="3"/><circle cx="50" cy="0" r="30" fill="#e5e7eb" stroke="#6b7280" stroke-width="3"/><circle cx="-50" cy="0" r="12" fill="#374151"/><circle cx="50" cy="0" r="12" fill="#374151"/></g><g transform="translate(1550, 0) rotate(0)"><path d="M -50 -32 L 50 -32 A 32 32 0 0 1 50 32 C 33.333 32, 16.667 24, 0 24 C -16.667 24, -33.333 32, -50 32 A 32 32 0 0 1 -50 -32 Z" fill="#b4bac2" stroke="#6b7280" stroke-width="3" stroke-linejoin="round"/><circle cx="-50" cy="0" r="30" fill="#e5e7eb" stroke="#6b7280" stroke-width="3"/><circle cx="50" cy="0" r="30" fill="#e5e7eb" stroke="#6b7280" stroke-width="3"/><circle cx="-50" cy="0" r="12" fill="#374151"/><circle cx="50" cy="0" r="12" fill="#374151"/></g></g><g><g transform="translate(50, 0) rotate(0)"><path d="M -50 -34 L 50 -34 A 34 34 0 0 1 50 34 C 33.333 34, 16.667 25, 0 25 C -16.667 25, -33.333 34, -50 34 A 34 34 0 0 1 -50 -34 Z" fill="#d9dde2" stroke="#6b7280" stroke-width="3" stroke-linejoin="round"/></g><g transform="translate(250, 0) rotate(0)"><path d="M -50 -34 L 50 -34 A 34 34 0 0 1 50 34 C 33.333 34, 16.667 25, 0 25 C -16.667 25, -33.333 34, -50 34 A 34 34 0 0 1 -50 -34 Z" fill="#d9dde2" stroke="#6b7280" stroke-width="3" stroke-linejoin="round"/></g><g transform="translate(450, 0) rotate(0)"><path d="M -50 -34 L 50 -34 A 34 34 0 0 1 50 34 C 33.333 34, 16.667 25, 0 25 C -16.667 25, -33.333 34, -50 34 A 34 34 0 0 1 -50 -34 Z" fill="#d9dde2" stroke="#6b7280" stroke-width="3" stroke-linejoin="round"/></g><g transform="translate(650, 0) rotate(0)"><path d="M -50 -34 L 50 -34 A 34 34 0 0 1 50 34 C 33.333 34, 16.667 25, 0 25 C -16.667 25, -33.333 34, -50 34 A 34 34 0 0 1 -50 -34 Z" fill="#d9dde2" stroke="#6b7280" stroke-width="3" stroke-linejoin="round"/></g><g transform="translate(850, 0) rotate(0)"><path d="M -50 -34 L 50 -34 A 34 34 0 0 1 50 34 C 33.333 34, 16.667 25, 0 25 C -16.667 25, -33.333 34, -50 34 A 34 34 0 0 1 -50 -34 Z" fill="#d9dde2" stroke="#6b7280" stroke-width="3" stroke-linejoin="round"/></g><g transform="translate(1050, 0) rotate(0)"><path d="M -50 -34 L 50 -34 A 34 34 0 0 1 50 34 C 33.333 34, 16.667 25, 0 25 C -16.667 25, -33.333 34, -50 34 A 34 34 0 0 1 -50 -34 Z" fill="#d9dde2" stroke="#6b7280" stroke-width="3" stroke-linejoin="round"/></g><g transform="translate(1250, 0) rotate(0)"><path d="M -50 -34 L 50 -34 A 34 34 0 0 1 50 34 C 33.333 34, 16.667 25, 0 25 C -16.667 25, -33.333 34, -50 34 A 34 34 0 0 1 -50 -34 Z" fill="#d9dde2" stroke="#6b7280" stroke-width="3" stroke-linejoin="round"/></g><g transform="translate(1450, 0) rotate(0)"><path d="M -50 -34 L 50 -34 A 34 34 0 0 1 50 34 C 33.333 34, 16.667 25, 0 25 C -16.667 25, -33.333 34, -50 34 A 34 34 0 0 1 -50 -34 Z" fill="#d9dde2" stroke="#6b7280" stroke-width="3" stroke-linejoin="round"/></g></g><g><circle cx="0" cy="0" r="14" fill="#f8fafc" stroke="#6b7280" stroke-width="3"/><circle cx="100" cy="0" r="14" fill="#f8fafc" stroke="#6b7280" stroke-width="3"/><circle cx="200" cy="0" r="14" fill="#f8fafc" stroke="#6b7280" stroke-width="3"/><circle cx="300" cy="0" r="14" fill="#f8fafc" stroke="#6b7280" stroke-width="3"/><circle cx="400" cy="0" r="14" fill="#f8fafc" stroke="#6b7280" stroke-width="3"/><circle cx="500" cy="0" r="14" fill="#f8fafc" stroke="#6b7280" stroke-width="3"/><circle cx="600" cy="0" r="14" fill="#f8fafc" stroke="#6b7280" stroke-width="3"/><circle cx="700" cy="0" r="14" fill="#f8fafc" stroke="#6b7280" stroke-width="3"/><circle cx="800" cy="0" r="14" fill="#f8fafc" stroke="#6b7280" stroke-width="3"/><circle cx="900" cy="0" r="14" fill="#f8fafc" stroke="#6b7280" stroke-width="3"/><circle cx="1000" cy="0" r="14" fill="#f8fafc" stroke="#6b7280" stroke-width="3"/><circle cx="1100" cy="0" r="14" fill="#f8fafc" stroke="#6b7280" stroke-width="3"/><circle cx="1200" cy="0" r="14" fill="#f8fafc" stroke="#6b7280" stroke-width="3"/><circle cx="1300" cy="0" r="14" fill="#f8fafc" stroke="#6b7280" stroke-width="3"/><circle cx="1400" cy="0" r="14" fill="#f8fafc" stroke="#6b7280" stroke-width="3"/><circle cx="1500" cy="0" r="14" fill="#f8fafc" stroke="#6b7280" stroke-width="3"/><circle cx="1600" cy="0" r="14" fill="#f8fafc" stroke="#6b7280" stroke-width="3"/></g></g></svg>
